<?xml version="1.0" encoding="UTF-8" standalone="no"?>
<!-- Created with Inkscape (http://www.inkscape.org/) -->

<svg
   xmlns:dc="http://purl.org/dc/elements/1.1/"
   xmlns:cc="http://creativecommons.org/ns#"
   xmlns:rdf="http://www.w3.org/1999/02/22-rdf-syntax-ns#"
   xmlns:svg="http://www.w3.org/2000/svg"
   xmlns="http://www.w3.org/2000/svg"
   xmlns:sodipodi="http://sodipodi.sourceforge.net/DTD/sodipodi-0.dtd"
   xmlns:inkscape="http://www.inkscape.org/namespaces/inkscape"
   width="210mm"
   height="297mm"
   viewBox="0 0 744.09448819 1052.3622047"
   id="svg2"
   version="1.1"
   inkscape:version="0.91 r13725"
   sodipodi:docname="heart.svg">
  <defs
     id="defs4">
    <inkscape:path-effect
       effect="sketch"
       id="path-effect4153"
       is_visible="true"
       nbiter_approxstrokes="2"
       strokelength="100"
       strokelength_rdm="0.3;1"
       strokeoverlap="0.3"
       strokeoverlap_rdm="0.3;1"
       ends_tolerance="0.1;1"
       parallel_offset="5;1"
       tremble_size="5;1"
       tremble_frequency="1"
       nbtangents="5"
       tgt_places_rdmness="1;1"
       tgtscale="10"
       tgtlength="100"
       tgtlength_rdm="0.3;1" />
    <inkscape:path-effect
       effect="rough_hatches"
       id="path-effect4149"
       is_visible="true"
       direction="465.42396,471.77933 , 3.8497333,-45.333333"
       dist_rdm="75;1"
       growth="0"
       do_bend="true"
       bender="405.42396,416.77933 , -20.333334,26.666667"
       bottom_edge_variation="39.600459;1"
       top_edge_variation="39.600459;1"
       bottom_tgt_variation="0;1"
       top_tgt_variation="0;1"
       scale_bf="1"
       scale_bb="1"
       scale_tf="1"
       scale_tb="1"
       top_smth_variation="0;1"
       bottom_smth_variation="0;1"
       fat_output="true"
       stroke_width_top="1"
       stroke_width_bottom="1"
       front_thickness="1"
       back_thickness="0.25" />
    <inkscape:path-effect
       effect="spiro"
       id="path-effect4138"
       is_visible="true" />
  </defs>
  <sodipodi:namedview
     id="base"
     pagecolor="#ffffff"
     bordercolor="#666666"
     borderopacity="1.0"
     inkscape:pageopacity="0.0"
     inkscape:pageshadow="2"
     inkscape:zoom="0.75"
     inkscape:cx="374.1465"
     inkscape:cy="504.02594"
     inkscape:document-units="px"
     inkscape:current-layer="layer1"
     showgrid="false"
     inkscape:window-width="1196"
     inkscape:window-height="1019"
     inkscape:window-x="1326"
     inkscape:window-y="11"
     inkscape:window-maximized="0" />
  <metadata
     id="metadata7">
    <rdf:RDF>
      <cc:Work
         rdf:about="">
        <dc:format>image/svg+xml</dc:format>
        <dc:type
           rdf:resource="http://purl.org/dc/dcmitype/StillImage" />
        <dc:title></dc:title>
      </cc:Work>
    </rdf:RDF>
  </metadata>
  <g
     inkscape:label="Layer 1"
     inkscape:groupmode="layer"
     id="layer1">
    <path
       style="fill:none;fill-rule:evenodd;stroke:#ff0000;stroke-width:1px;stroke-linecap:butt;stroke-linejoin:miter;stroke-opacity:1"
       d="m 328.71064,278.85431 c -15.73743,-15.95698 -36.15314,-26.66779 -58.09382,-33.24296 -4.39966,-1.31848 -8.8643,-2.47213 -13.3707,-3.47037 m 17.42901,-4.64792 c -1.92387,-0.71419 -3.85206,-1.3896 -5.7838,-2.0267 -21.04411,-6.94038 -42.49758,-9.32948 -63.40509,-7.75822 m 8.96231,5.57735 c -8.08265,-0.37615 -16.01505,-0.28527 -23.78248,0.2464 -17.16583,1.17499 -33.53513,4.50358 -48.94572,9.70751 m 21.40271,-2.54173 c -11.89287,3.99968 -23.73557,9.06733 -34.94413,15.38091 -16.24074,9.14813 -31.173321,20.92842 -42.924137,35.82311 M 96.5855,264.18737 c -11.830028,8.83525 -21.60898,19.48215 -29.04738,31.66201 -6.790776,10.89011 -10.98567,23.10963 -12.67251,35.67431 m 6.668338,-13.82945 c -8.260031,17.12467 -11.322429,34.7319 -9.447986,51.2563 0.746488,6.58076 2.276206,12.99181 4.572991,19.12893 m -9.780407,-13.41226 c 0.909435,23.00024 10.467745,45.24682 28.290006,62.33822 1.267154,1.29699 2.554455,2.56667 3.860698,3.80985 m -5.80121,-16.86455 c 2.285123,3.07307 4.728966,6.06686 7.337292,8.96556 12.801694,15.23066 26.625728,27.68791 41.469938,38.9268 0.44131,0.33413 0.88331,0.66702 1.32599,0.9987 m -13.46512,-6.82757 c 3.71092,2.57901 7.4607,4.98972 11.24425,7.25336 16.23425,9.71273 33.0841,16.71642 50.19621,22.69636 6.67308,2.33194 13.38039,4.50655 20.11282,6.62964 m -20.47644,-10.54617 c 0.94308,0.44392 1.88991,0.88417 2.84034,1.32113 17.44024,8.01813 35.88302,14.8394 54.49361,22.88594 9.93188,4.29418 19.84399,8.91051 29.56079,14.19575 m -27.37552,-9.47431 c 16.59128,7.03088 31.88825,14.4922 45.92713,23.57604 8.58384,5.19182 17.43752,10.16197 26.34555,15.23385 m -22.48139,-15.19108 c 16.65502,9.74165 33.10244,18.48069 47.977,28.15644 8.93146,5.80982 17.34547,11.98614 25.01181,18.98604 0.33545,0.30628 0.66944,0.61413 1.00197,0.92358 m -19.60974,-8.01436 c 6.42536,4.66096 12.51228,9.75911 18.16346,15.41667 8.1273,8.1365 15.3689,17.44373 21.44365,28.33726 5.4482,-6.82425 11.71776,-12.62923 18.68023,-17.57265 m -9.91404,8.51828 c 5.6331,-7.64955 12.22665,-14.45111 19.40558,-20.51851 8.73971,-7.38651 18.35487,-13.69208 28.18966,-19.13484 1.86175,-1.03033 3.73126,-2.02968 5.60426,-2.99966 m -11.31236,2.64437 c 2.56416,-1.80558 5.14712,-3.55776 7.74202,-5.26604 20.28128,-13.35162 39.08509,-22.78845 57.78613,-35.24847 m -15.40369,12.35042 c 6.4155,-3.55671 12.87671,-7.222 19.23647,-11.06577 15.71166,-8.33403 33.08587,-15.15622 51.10893,-21.177 5.09423,-1.70178 10.23834,-3.3389 15.41214,-4.92855 m -23.94618,7.84394 c 3.09119,-1.18515 6.18237,-2.383 9.27479,-3.60039 17.07825,-6.72319 34.0373,-13.98417 50.60871,-22.67882 10.16056,-5.33103 20.15521,-11.19203 29.84526,-17.75256 M 599.3763,491.2 c 15.15639,-6.16682 29.9425,-12.98339 43.81725,-21.06086 13.86075,-8.06933 26.67416,-17.31455 38.2034,-28.40348 m -22.88337,13.53592 c 8.64441,-6.91364 16.85308,-14.88139 24.51619,-24.18384 9.79603,-11.12213 17.04432,-23.9781 22.03309,-37.67896 0.82743,-2.27243 1.5927,-4.568 2.2972,-6.88272 m -18.10563,28.43279 c 1.96718,-4.22304 3.64073,-8.53743 5.0377,-12.91909 4.25567,-13.34804 5.94485,-27.32044 5.54909,-41.24035 -0.34082,-11.98723 -2.22801,-23.93901 -5.35459,-35.41369 m 7.33919,23.95417 c -1.6354,-9.98745 -4.59013,-19.81985 -8.73822,-29.21038 -5.70191,-12.90806 -13.65671,-24.9771 -23.53394,-35.45791 -5.36863,-5.99789 -11.13599,-11.61372 -17.2232,-16.85848 m 22.88437,19.47892 c -0.89515,-1.0009 -1.80245,-1.98126 -2.72188,-2.9407 -16.69252,-18.33876 -35.75713,-30.54362 -56.30007,-38.24171 -6.92491,-2.59498 -14.01804,-4.67788 -21.24782,-6.31185 m 24.12835,10.96143 c -1.54822,-0.71676 -3.10713,-1.41565 -4.67601,-2.09685 -21.6382,-9.39525 -45.19908,-15.43667 -68.68818,-18.62607 -6.37678,-0.86585 -12.75109,-1.52176 -19.08237,-1.97675 m 20.84213,6.90575 c -2.64,-0.14697 -5.26972,-0.23666 -7.88756,-0.26946 -23.72771,-0.29725 -46.48803,4.08103 -67.0686,12.86088 -6.26481,2.67262 -12.32785,5.7533 -18.15398,9.2344 m 28.14971,-21.52774 c -2.53731,1.04017 -5.06725,2.14105 -7.58509,3.30534 -21.15949,9.78456 -41.54894,24.09158 -58.1568,44.52116 -2.51846,3.02044 -4.95018,6.15579 -7.28787,9.40487 M 429.669,277.07612 c -3.31906,3.02132 -6.51292,6.21855 -9.57399,9.59247 -13.36405,14.33756 -24.1432,31.28607 -32.12622,49.77591 m 9.59832,-11.0134 c -7.99071,15.10141 -13.65283,31.99397 -16.32446,49.44435 -1.56353,-11.34696 -4.2725,-22.50663 -7.98815,-33.36046 m 3.58758,22.70089 c -6.29101,-23.91378 -17.0619,-47.58862 -33.06821,-67.77654 m 8.91521,15.35993 c -6.88216,-10.63002 -14.85766,-20.95875 -23.82943,-30.55819 -10.4785,-11.64548 -22.13775,-21.87703 -34.54422,-30.60373 m 23.87641,13.48217 c -16.74502,-14.9076 -35.37838,-24.57211 -55.00118,-29.9531 -10.72366,-2.94065 -21.7446,-4.60257 -32.92902,-5.14395 m 28.98432,13.63386 c -22,-5.2141 -44.43828,-7.38951 -65.95639,-5.28212 -4.43325,0.43417 -8.8287,1.05015 -13.17553,1.85894 m 29.63443,-10.8612 c -2.03198,0.14021 -4.06516,0.31299 -6.09801,0.51843 -24.29057,2.45488 -48.52711,9.57259 -70.12355,21.51881 -0.96483,0.5337 -1.92437,1.07703 -2.87841,1.63001 m 15.1862,-6.14676 c -5.22265,2.23902 -10.41438,4.78133 -15.53527,7.62379 -21.6018,11.99053 -41.913775,29.29973 -58.096583,51.79008 -0.163139,0.22296 -0.325615,0.44644 -0.487424,0.67046 m 16.427466,-27.39788 c -5.691432,5.75603 -10.874667,12.06387 -15.492344,18.90347 -13.245723,19.25069 -19.805244,43.00807 -19.679668,66.70578 m 7.821232,-31.92868 c -1.840909,10.04011 -2.686256,20.49473 -2.363014,31.02658 0.614234,20.01293 5.443553,40.25613 15.64647,58.54876 m -20.312759,-9.96987 c 4.207359,12.4094 10.9432,23.88449 20.246251,33.75465 12.29748,13.95301 26.811003,24.92103 42.596293,34.20776 M 94.90337,449.07551 c 7.16383,5.89068 15.03802,11.33312 23.39903,16.40656 11.89418,7.21735 24.77697,13.68961 37.97355,19.63687 m -10.6838,4.61038 c 9.24436,4.207 18.3055,8.0418 27.09709,11.66816 16.73237,6.90179 32.45858,13.03904 47.03827,19.68548 2.84514,1.29702 5.64436,2.61252 8.39504,3.95535 m -13.97251,-5.97491 c 5.78232,2.2974 11.48828,4.59935 17.11238,6.95774 17.97698,7.53842 35.12265,15.65586 51.25439,26.04512 6.07025,3.66194 12.33736,7.25544 18.73005,10.89247 m -33.24785,-30.53242 c 1.83232,1.14079 3.65543,2.31221 5.46806,3.51655 18.67447,11.62985 39.4951,22.95013 59.30218,37.18438 0.0963,0.0692 0.19256,0.13847 0.28879,0.2078 m -12.8539,5.61695 c 4.24854,2.85888 8.58751,5.75319 12.90571,8.6935 9.17385,6.24658 18.32497,12.74854 26.96905,19.99122 8.64615,7.24442 16.70287,15.16227 23.75346,24.22171 1.57389,-2.10846 3.20167,-4.16905 4.87887,-6.18421 m -18.9525,-13.20254 c 3.29431,4.06525 6.41528,8.49914 9.30684,13.3356 6.92005,-10.41774 15.61867,-18.98118 25.40425,-26.2837 9.80902,-7.32001 20.73674,-13.39625 32.24896,-18.90836 1.41871,-0.67928 2.84582,-1.34978 4.28039,-2.01286 m -19.65147,17.47086 c 5.77649,-4.45473 11.847,-8.61815 18.09694,-12.59753 14.92592,-9.50346 30.85685,-17.94605 46.23706,-26.80305 m -16.68284,4.01824 c 10.40837,-5.71692 21.08606,-11.76488 31.32563,-18.4383 11.19936,-6.43163 23.08372,-12.20642 35.07473,-17.54287 m -19.66924,6.22424 c 9.17597,-4.66146 18.92743,-8.82447 28.98022,-12.78235 12.45817,-4.90489 25.29558,-9.4631 38.04311,-14.26515 m -16.8034,10.94604 c 9.2903,-3.30178 18.703,-6.92299 28.10802,-10.97286 17.04645,-7.34033 34.07676,-16.09243 50.16619,-26.8626 1.52037,-1.01772 3.03275,-2.05373 4.5365,-3.10862 m -22.48972,11.09474 c 5.46036,-2.95767 10.8093,-6.08069 16.01732,-9.41846 14.9978,-9.61194 28.78098,-20.97492 40.72228,-35.27452 5.88767,-6.5766 10.70822,-13.72132 14.52529,-21.23606 m -21.82889,20.65273 c 0.70359,-0.83509 1.40078,-1.67857 2.09155,-2.53072 9.63824,-11.11321 16.4328,-23.53115 20.83814,-36.59444 4.40428,-13.06011 6.41422,-26.7503 6.4792,-40.37329 0.009,-1.79569 -0.0167,-3.59022 -0.0747,-5.38197 m 0.79017,23.7562 c 0.53419,-6.52072 0.40109,-13.09478 -0.37604,-19.639 -1.63803,-13.79397 -6.13641,-27.44738 -13.26771,-40.19918 -6.69267,-11.96745 -15.70476,-23.14033 -26.83076,-32.8607 m 25.78149,27.01201 c -4.64306,-9.78961 -11.02724,-18.89181 -18.8797,-26.99148 C 657.61311,270.001 639.0229,256.93585 618.81124,246.19279 m 27.05755,10.27863 c -10.00682,-7.08437 -20.62088,-12.75393 -31.68754,-17.15623 -18.0089,-7.16392 -37.2146,-10.97171 -56.99197,-12.07868 m 33.93436,8.06454 c -12.44441,-2.41351 -25.25951,-3.99392 -38.04647,-4.58712 -15.25396,-0.70764 -30.47392,-0.011 -45.01801,2.35523 m 12.34089,-6.06896 c -15.82163,1.24606 -30.72439,5.53169 -44.57691,12.42846 -11.72484,5.83746 -22.71143,13.55283 -32.86731,22.90488 m 10.19012,-4.05956 c -15.4323,8.53478 -29.23782,19.52894 -40.48684,33.16679 -5.29068,6.2346 -10.01927,12.91466 -14.1335,19.97453 m 14.50803,-22.92744 c -19.04565,22.41284 -32.83112,50.01953 -39.06141,78.49499 -0.56184,-2.92874 -1.20412,-5.85237 -1.92541,-8.76767 m 11.36685,-5.26864 c -2.15361,6.52056 -3.7864,13.15561 -4.907,19.87836 -3.12051,-19.64898 -9.01706,-38.62913 -18.17984,-55.1456 m 4.66655,12.38795 c -9.11609,-21.61599 -20.72346,-39.69126 -34.99562,-53.85105 -3.11818,-3.2291 -6.35081,-6.23218 -9.68875,-9.02518 m 353.24897,190.20092 40.98098,-75.54988 M 387.46344,424.36412 369.51212,312.186 m 163.05982,-88.71192 -106.2885,41.84509 M 93.696965,264.49535 44.511698,341.52392 M 399.31374,594.73368 546.5393,510.67728"
       id="path4143"
       inkscape:connector-curvature="0"
       inkscape:path-effect="#path-effect4153"
       inkscape:original-d="m 330.3939,275.45525 c -70.81163,-70.28046 -203.21813,-58.40141 -259.180281,24.37512 -27.969675,40.5916 -27.657406,99.5082 6.141173,136.81313 50.834958,60.0891 135.102688,66.78169 198.358228,108.0085 37.05194,22.60317 80.13772,41.96956 103.05521,80.79628 27.46517,-41.63436 76.32803,-60.40476 116.90901,-86.34663 61.87762,-34.83593 140.7154,-44.47383 187.10726,-103.03671 36.90724,-43.43965 28.46852,-111.60687 -10.15408,-150.99593 -64.68294,-69.60502 -188.47887,-71.57947 -252.49318,0.20486 -21.54693,23.50792 -36.20125,53.33278 -41.36902,84.818 -5.30286,-35.66207 -22.23747,-69.67824 -48.37432,-94.63662 z" />
    <path
       inkscape:connector-curvature="0"
       id="path4147"
       d="m 600.42829,251.97852 c 0,0 -20.57376,-1.46287 -43.12647,-2.47408 -22.52142,-1.00981 -47.13357,-1.57309 -55.32585,0.60442 -8.79029,2.33646 24.61296,6.61861 61.82818,10.97957 37.10325,4.34783 78.42631,8.79589 84.01614,12.57837 5.99693,4.05795 -38.75519,3.14267 -85.70366,1.55343 -46.9446,-1.58912 -96.24657,-3.88077 -100.70228,-0.7752 -4.83363,3.36897 51.20005,9.90578 109.10739,15.09462 57.81739,5.18078 117.96385,9.04462 118.73219,9.87834 1.07555,1.16709 -61.04832,-1.80127 -123.07097,-5.29537 -62.10659,-3.49884 -124.46842,-7.55008 -126.67807,-5.43845 -2.52714,2.41503 60.75539,9.03967 125.75476,14.91809 64.89124,5.86863 131.93472,11.01684 133.71042,13.94273 2.00199,3.29879 -74.51961,0.7721 -150.85932,-2.93983 -76.45571,-3.71756 -153.04729,-8.64995 -155.39164,-5.43484 -2.61232,3.58261 68.7158,11.70597 141.84866,18.71622 73.01452,6.9989 148.1811,12.90584 149.2398,16.47651 1.17206,3.95299 -72.63163,1.96562 -145.80053,-1.74292 -73.27342,-3.71385 -146.06997,-9.16863 -146.74807,-7.79428 -0.86539,1.75398 75.59899,9.14475 153.38648,15.16192 77.66266,6.00753 156.86565,10.65568 157.04827,11.86637 0.24228,1.60619 -76.79951,-1.48544 -152.95687,-5.52024 -76.27743,-4.04117 -151.8194,-9.03472 -152.77369,-6.54839 -1.10477,2.8784 77.30293,10.84028 157.145,17.10612 79.7159,6.25593 161.0014,10.82627 161.01539,12.12585 0.0184,1.70692 -81.10677,-1.31455 -161.13109,-5.46175 -80.15427,-4.15395 -159.29539,-9.43825 -159.92093,-7.09441 -0.73418,2.75093 78.83097,10.63323 159.67191,17.27285 80.71772,6.62949 162.7535,12.01764 162.23632,15.11729 -0.27668,1.65827 -41.93911,1.27516 -103.67131,-1.10726 -64.12727,-2.47485 -140.9339,-6.73814 -223.885,-12.7638 -84.45507,-6.1349 -156.37927,-12.67563 -219.49882,-18.62902 -59.2902,-5.59221 -98.489105,-9.45523 -98.759719,-7.88732 -0.271995,1.57591 38.772949,7.81931 98.136449,15.32337 61.6375,7.7915 136.96274,15.9271 220.18107,23.30206 83.97556,7.44206 159.70042,12.69312 224.66898,16.69613 61.85369,3.81109 103.46325,5.86502 103.20761,6.51224 -0.2564,0.64916 -44.0075,-0.4878 -108.74937,-3.60251 C 538.98346,413.44188 459.17706,408.55294 371.92708,401.60933 284.1904,394.627 207.48001,387.05992 142.25135,380.04135 80.310692,373.37657 39.464238,368.37983 39.435842,368.90986 c -0.02862,0.53422 38.93092,6.07087 97.999038,13.09355 61.7533,7.34193 135.78297,15.16109 218.8921,22.41837 83.44741,7.28681 158.65756,12.49976 223.22227,16.40437 61.46014,3.71687 102.84392,5.62982 102.69386,5.93116 -0.15366,0.30859 -41.58604,-1.1408 -102.95212,-4.37579 -64.49397,-3.39988 -139.42152,-8.15838 -222.62751,-14.73838 -84.29681,-6.66627 -155.1272,-13.434 -218.11054,-19.67114 -58.83876,-5.82671 -97.65516,-9.83987 -97.604259,-8.41601 0.05126,1.43397 38.617661,7.53077 97.006719,14.92743 60.69743,7.68909 134.5256,15.75493 216.2133,23.15163 82.46785,7.46734 156.43272,12.78444 220.09466,16.91566 60.48747,3.92523 101.09107,6.11598 100.55699,6.83442 -0.54218,0.72934 -40.86572,-0.33806 -100.35235,-3.21288 -62.08328,-3.00031 -135.48517,-7.49747 -215.56015,-13.73988 -80.71959,-6.29267 -150.92696,-12.99063 -210.99013,-19.1409 -56.89496,-5.82585 -94.412318,-10.08677 -94.292607,-9.38262 0.122248,0.71907 38.205309,6.08955 95.795637,12.80775 60.1136,7.01254 132.42758,14.44761 213.21933,21.30358 81.17992,6.8889 154.40532,11.80457 217.11261,15.47737 59.71491,3.49754 99.90322,5.29503 99.65195,5.58946 -0.26038,0.30508 -41.32674,-1.06132 -102.03232,-4.18738 -63.63874,-3.27711 -138.08499,-7.93086 -220.18254,-14.41591 -82.58326,-6.52343 -154.12998,-13.40167 -215.59644,-19.74816 -58.124371,-6.00141 -96.448103,-10.39231 -96.273448,-9.69304 0.17825,0.71368 37.771031,6.02264 94.568018,12.67075 59.27157,6.93775 130.59824,14.3071 210.2189,21.1121 79.96568,6.83449 152.23708,11.73849 213.98585,15.38465 58.84959,3.47497 98.47283,5.24671 98.26262,5.46385 -0.22486,0.23227 -39.4686,-1.179 -97.49321,-4.23224 -60.95606,-3.2075 -131.89231,-7.65962 -210.53844,-13.78324 -79.36608,-6.17968 -147.05452,-12.52082 -206.21168,-18.34796 -55.574971,-5.47429 -92.181843,-9.3376 -91.832488,-8.32697 0.356359,1.0309 37.370786,6.39445 93.049748,13.0678 58.2382,6.98007 127.7432,14.31571 205.48573,21.33741 79.66343,7.19518 146.35982,12.16208 207.49512,16.70192 56.57115,4.2009 93.94599,7.02932 91.79087,8.71814 -2.18221,1.71004 -40.27295,1.51007 -95.48199,-0.44231 -57.13846,-2.0206 -125.65254,-5.64635 -198.67151,-10.67924 -74.18159,-5.11303 -138.17079,-10.61918 -193.02625,-15.5505 -51.81626,-4.6581 -85.745612,-7.8944 -84.911139,-6.7086 0.857636,1.21872 35.686079,6.19034 87.656869,12.26993 54.2239,6.34316 119.13361,12.98181 191.07183,19.30818 73.7974,6.48987 135.51385,10.98828 191.71311,15.09338 52.00758,3.79891 86.07945,6.35547 83.33856,7.81193 -2.79637,1.48595 -39.13959,1.18485 -91.34191,-0.69347 -54.08694,-1.94612 -118.4972,-5.3189 -187.16734,-9.90018 -70.11096,-4.67741 -129.25567,-9.54592 -180.85614,-13.86176 -48.31469,-4.04101 -79.66833,-6.68816 -78.01553,-5.22442 1.70625,1.51109 33.04842,6.05883 79.33217,11.42818 47.86959,5.55333 106.20755,11.36635 169.55745,16.69133 63.8341,5.36567 121.7539,9.32594 170.49094,12.3179 46.60481,2.86105 77.80942,4.41555 77.32096,4.61827 -0.58104,0.24114 -33.17277,-1.01206 -80.97342,-3.51419 -50.42866,-2.6397 -108.35247,-6.16885 -173.00835,-10.81242 -66.79853,-4.79746 -118.55605,-9.14418 -168.10796,-13.21456 -44.80997,-3.68086 -73.681583,-5.9092 -71.20794,-4.24764 2.56273,1.7214 31.40623,6.00722 73.27213,11.02355 43.29499,5.18755 95.57389,10.58809 151.91423,15.708 57.91523,5.26303 106.64447,9.04328 150.14166,12.4572 40.44301,3.17421 66.65953,5.3122 64.11273,6.30945 -5.8729,2.29964 -110.2902,-2.30622 -211.42443,-9.1858 -101.29345,-6.89042 -197.00424,-15.85365 -192.66718,-13.92035 5.77368,2.5737 96.01985,12.4295 187.76487,20.28763 91.254,7.81606 181.57338,13.45879 179.8356,14.21939 -2.65178,1.16063 -89.31414,-3.30179 -173.10874,-8.95537 -83.92743,-5.66255 -163.50951,-12.37845 -157.15376,-9.88254 7.70421,3.02546 83.1259,11.11555 158.81237,17.69139 75.2103,6.53447 148.78627,11.42321 146.93743,12.40406 -2.44296,1.29604 -66.40933,-1.8569 -126.97306,-4.96741 -60.53082,-3.10881 -117.28178,-6.11451 -107.50014,-1.40636 10.51725,5.06222 66.31441,11.65748 120.64915,16.59942 54.08042,4.91882 105.74664,8.12863 105.02689,8.53845 -1.14956,0.65455 -54.297,-2.11734 -106.36138,-5.31674 -52.11637,-3.20259 -102.73072,-6.79877 -100.77648,-5.57599 2.45994,1.53919 48.57534,5.89174 93.51771,10.21323 44.83728,4.31139 88.05152,8.5613 82.88427,11.54885 -5.54501,3.20597 -43.18313,2.654 -78.43167,1.58675 -35.24385,-1.0671 -67.96416,-2.63311 -64.39565,-0.47677 3.97956,2.40472 32.39449,5.55952 59.79196,8.19366 27.3461,2.6292 53.48187,4.72637 52.19438,5.58376 -1.57455,1.04856 -27.00812,0.0119 -50.71436,-0.46687 -23.69235,-0.47854 -45.64634,-0.38951 -40.54865,3.3791 10.77126,7.96295 66.42138,11.77636 60.58363,17.1886 -6.34056,5.87839 -31.66289,4.2161 -25.43039,12.12604 6.54502,8.30657 25.601,9.00297 25.601,9.00297 0,0 -18.86674,-1.67469 -24.59062,-8.93667 -6.02792,-7.64772 18.84186,-6.01822 25.43175,-12.12783 6.82465,-6.32726 -51.30646,-10.31998 -60.58983,-17.18046 -4.91143,-3.62958 16.95909,-3.66598 40.56544,-3.19651 23.61934,0.46973 48.96118,1.43582 50.70507,0.27445 1.96452,-1.30831 -24.65122,-3.6792 -52.40545,-6.33549 -27.80327,-2.66098 -56.55696,-5.59563 -59.59121,-7.42841 -3.33201,-2.01266 29.29419,-0.39719 64.43518,0.65793 35.14425,1.05521 72.66619,1.53411 78.4041,-1.78358 5.93836,-3.4336 -37.74947,-7.95258 -83.01435,-12.29214 -45.3651,-4.34916 -91.8681,-8.48806 -93.40388,-9.44864 -1.72307,-1.07772 48.79774,2.56432 100.81378,5.75252 51.9623,3.18491 104.99694,5.88246 106.34222,5.11643 1.50181,-0.85518 -50.81657,-4.34276 -105.41596,-9.29736 -54.84832,-4.9772 -111.03422,-11.36483 -120.28069,-15.81348 -9.46268,-4.55267 47.18532,-1.50383 107.59416,1.58709 60.4374,3.09239 124.24806,6.16683 126.89919,4.76025 2.67919,-1.42146 -71.77674,-6.6008 -147.63068,-13.18618 -76.31068,-6.62504 -152.16161,-14.52369 -158.1468,-16.87297 -5.92442,-2.32543 73.5348,4.42465 157.30822,10.06218 83.63268,5.62807 170.08456,10.00653 172.98329,8.73767 2.7269,-1.19364 -88.36327,-7.11367 -180.24571,-14.97802 -92.35453,-7.90476 -183.10431,-17.57688 -187.38792,-19.48551 -3.96368,-1.76608 91.61613,7.22745 192.76325,14.09129 100.98119,6.85258 205.21694,11.37558 211.36387,8.9683 3.09995,-1.21401 -22.96661,-3.52238 -63.4587,-6.81652 -44.58447,-3.62707 -91.4903,-7.29221 -150.6979,-12.6652 -56.77682,-5.1524 -108.95506,-10.48061 -152.51373,-15.56586 -41.94642,-4.89702 -70.70231,-8.98283 -72.81034,-10.39827 -2.36015,-1.58472 26.53781,0.68974 71.33468,4.39399 49.2323,4.07102 101.54545,8.46407 167.98259,13.22604 64.5111,4.62392 122.55842,8.13972 172.88901,10.73617 47.79222,2.4655 80.42164,3.67156 81.13496,3.37548 1.01742,-0.4223 -30.01808,-2.14568 -76.63794,-5.12325 -49.05623,-3.13317 -106.57155,-7.10982 -170.92783,-12.51215 -63.73105,-5.34984 -121.9831,-11.09218 -170.11377,-16.54073 -46.38145,-5.25053 -77.69092,-9.60294 -79.066687,-10.82092 -1.570338,-1.39023 29.801137,1.30196 78.104817,5.36628 51.46405,4.33024 110.81634,9.2183 180.76146,13.87467 68.59055,4.5662 133.03882,7.9182 187.08371,9.82477 52.19922,1.84146 88.57561,2.09472 91.47807,0.55228 3.16488,-1.68189 -30.75491,-4.40836 -82.75495,-8.32204 -57.00907,-4.29067 -117.23014,-8.7084 -192.00465,-15.27527 -72.31589,-6.35095 -136.97525,-12.90179 -191.50984,-19.14351 -52.06351,-5.95891 -86.900032,-10.73788 -87.561039,-11.67687 -0.78543,-1.11574 33.153359,2.16464 84.961999,6.84613 54.76021,4.94821 118.898,10.47023 192.9681,15.56525 72.96111,5.01874 141.52059,8.62353 198.62717,10.60451 55.21103,1.91523 93.328,2.06663 95.58392,0.29878 2.44975,-1.91973 -34.80944,-4.92008 -91.3637,-9.23573 -61.8525,-4.71996 -127.16292,-9.61434 -207.66302,-16.87654 -78.0659,-7.04261 -147.25464,-14.28266 -205.78856,-21.15896 -55.75374,-6.54971 -92.796929,-11.72125 -93.060352,-12.483 -0.326193,-0.94326 36.281675,2.96311 91.849372,8.46052 59.05283,5.84221 126.9187,12.20282 206.17489,18.36318 78.57089,6.10709 149.62212,10.54366 210.52337,13.70862 58.03214,3.01587 97.30065,4.37812 97.58207,4.08742 0.43646,-0.45086 -39.09784,-2.39604 -97.93439,-5.98654 -61.9949,-3.78323 -133.81069,-8.70212 -214.11462,-15.55837 -79.89246,-6.82113 -150.9307,-14.0992 -210.45484,-20.92785 -56.856626,-6.52263 -94.475226,-11.63862 -94.586983,-12.08587 -0.158075,-0.63261 38.165092,3.801 96.283083,9.82532 61.38604,6.36308 133.06767,13.25721 215.56762,19.76286 82.0334,6.46887 156.5833,11.10577 220.17593,14.34057 60.71428,3.0884 101.80409,4.40549 102.11457,4.04169 0.4517,-0.52926 -39.65472,-2.50061 -99.35426,-6.11358 -62.95537,-3.81002 -135.70484,-8.73944 -217.21553,-15.64923 -81.05028,-6.87076 -153.06696,-14.21362 -213.42823,-21.11619 -57.646633,-6.59213 -95.760249,-11.77 -95.83772,-12.22543 -0.108558,-0.63819 37.406939,3.66544 94.29618,9.5145 59.9865,6.1675 130.32535,12.88123 210.96746,19.15691 80.02241,6.22746 153.5131,10.70654 215.55963,13.66545 59.49589,2.83727 99.84116,3.85532 100.42718,3.06702 0.70942,-0.95432 -39.81536,-3.31927 -100.28052,-7.35969 -63.92171,-4.27139 -137.35651,-9.59491 -220.15885,-17.08488 -81.89057,-7.40749 -155.4897,-15.3845 -216.39372,-22.96036 -58.445069,-7.27 -97.053855,-13.17493 -97.095909,-14.34903 -0.04867,-1.3588 38.764877,2.69697 97.600549,8.54702 62.87148,6.25132 133.91555,13.04152 218.10304,19.68765 83.14578,6.5639 158.19497,11.30653 222.63911,14.66342 61.37587,3.19706 102.82542,4.59662 103.00875,4.22846 0.26872,-0.53965 -41.05823,-2.62821 -102.49864,-6.46099 -64.80191,-4.04247 -139.51577,-9.26769 -223.25256,-16.57282 -83.33855,-7.27039 -157.02279,-14.99136 -219.01681,-22.222 -59.111794,-6.89448 -98.111922,-12.23862 -98.097088,-12.51581 0.02493,-0.46574 40.867311,4.57319 102.805878,11.26099 65.16796,7.0365 141.99499,14.61771 229.67587,21.58365 87.20894,6.92846 167.10874,11.79865 234.70198,15.01005 64.75272,3.07644 108.51965,4.16327 108.79965,3.45436 0.35004,-0.88628 -41.20682,-3.11595 -103.03538,-7.04259 -65.1964,-4.14052 -140.41821,-9.40283 -224.66577,-16.86185 -83.37354,-7.38163 -158.46267,-15.4276 -220.27886,-23.10232 -59.40595,-7.37548 -98.500766,-13.42745 -98.272468,-14.75049 0.259633,-1.50462 39.453728,2.40083 98.744088,8.01678 63.02869,5.97005 135.13982,12.53007 219.51154,18.64747 82.92359,6.0124 159.81066,10.25563 223.91337,12.68965 61.74284,2.34441 103.41614,2.67734 103.70281,0.9588 0.59742,-3.58147 -81.38118,-9.20638 -162.09181,-15.82921 -80.83404,-6.63295 -160.44839,-14.26379 -159.8456,-16.52267 0.59261,-2.22068 79.74071,3.11578 159.91098,7.26004 80.04042,4.13755 161.18867,7.08794 161.16887,5.25962 -0.0193,-1.78579 -81.21891,-6.59286 -160.89184,-12.84008 -79.79977,-6.25716 -158.2148,-13.96348 -157.29721,-16.3543 0.90743,-2.36434 76.46451,2.68273 152.76532,6.71522 76.18098,4.02615 153.25266,7.04731 152.99175,5.31864 -0.25676,-1.70123 -79.34734,-6.58595 -156.93651,-12.58286 -77.71511,-6.00664 -154.15299,-13.13827 -153.5261,-14.40888 0.61844,-1.25346 73.4389,4.25611 146.74317,7.96221 73.20015,3.70083 147.03984,5.61835 145.83067,1.54189 -1.20621,-4.06647 -76.20498,-10.20801 -149.10076,-17.19286 -73.01558,-6.99633 -144.28128,-14.85601 -142.01447,-17.96477 2.25789,-3.09653 78.89312,1.89229 155.39657,5.60282 76.38821,3.70495 152.95958,6.16164 150.88071,2.73734 -2.08265,-3.43051 -68.88729,-8.81118 -133.58448,-14.66148 -64.80738,-5.86027 -127.94832,-12.21501 -125.90439,-14.16828 2.08879,-1.99614 64.51408,2.11506 126.68623,5.60996 62.08916,3.49023 124.27905,6.39115 123.08452,5.09539 -1.24429,-1.34972 -61.07058,-5.44268 -118.61041,-10.59973 -57.63258,-5.16536 -113.44054,-11.4251 -109.24995,-14.34598 4.29487,-2.99357 53.70005,-0.63691 100.73916,0.9525 47.0447,1.5896 91.88009,2.44098 85.68242,-1.75124 -6.39561,-4.3261 -46.98676,-8.97585 -83.53414,-13.27855 -36.65573,-4.31546 -69.67595,-8.30663 -62.32397,-10.2613 7.83347,-2.08269 32.19513,-1.54096 54.55743,-0.575 22.39279,0.96729 42.89593,2.36338 42.89593,2.36338 z m -336.17853,-3.64886 c 0,0 -21.52163,-2.39384 -45.80901,-4.34183 -24.23452,-1.94376 -51.4074,-3.4588 -62.7604,-1.25351 -12.03885,2.33852 21.467,8.45772 58.59571,13.91951 37.02448,5.44646 78.0386,10.26476 79.47563,11.26197 1.8786,1.30363 -37.87227,-2.31561 -78.69745,-6.12607 -40.83459,-3.81134 -83.02851,-7.85068 -87.16553,-5.97203 -4.59272,2.08559 39.34505,8.94988 85.51144,15.63628 46.08478,6.67458 94.83182,13.21514 97.99749,16.49845 3.46349,3.5922 -43.61406,0.48228 -92.01379,-3.23849 -48.42071,-3.72238 -98.35054,-8.08704 -102.22778,-5.00424 -4.20878,3.3464 51.64965,12.22282 109.65103,20.48134 57.90622,8.24497 118.38196,15.91394 120.64641,19.77518 2.48024,4.2292 -66.68765,-0.2797 -135.66549,-6.51345 -69.0652,-6.24164 -138.209948,-14.25059 -139.283645,-12.91218 -1.371721,1.70991 74.407605,12.25276 151.686575,21.38649 77.13872,9.11716 156.22488,16.8719 156.78189,18.14726 0.74485,1.70543 -75.19319,-4.25568 -150.39314,-11.21211 -75.32873,-6.96835 -150.222354,-14.96539 -151.745545,-12.5219 -1.757633,2.81959 68.939445,13.13607 141.118965,21.96163 72.05732,8.81061 145.89437,16.16258 146.31958,17.55035 0.55212,1.80192 -77.0513,-4.28339 -153.71267,-11.4663 -76.80311,-7.19618 -152.881103,-15.51364 -153.856909,-13.16691 -1.146313,2.7568 76.539079,13.79803 155.697729,22.77086 79.04963,8.96047 159.68121,15.7482 159.68121,15.7482 0,0 -80.28219,-7.00933 -159.03912,-16.06206 -78.86515,-9.06517 -156.314513,-20.0692 -155.372966,-22.33361 0.924492,-2.2234 77.028046,6.15066 153.861206,13.33898 76.69182,7.1751 154.32755,13.18851 153.73585,11.25819 -0.58317,-1.90246 -74.27632,-9.49209 -146.22326,-18.28557 -72.07079,-8.80862 -142.700131,-18.85224 -141.242023,-21.19134 1.448254,-2.32329 76.375843,5.73182 151.744633,12.69363 75.2406,6.94996 151.22287,12.84033 150.42101,11.00502 -0.78462,-1.79586 -79.6873,-9.78538 -156.67873,-18.88087 -77.13396,-9.11232 -152.812468,-19.37615 -151.818241,-20.61549 0.979312,-1.22076 70.168051,6.84865 139.282831,13.08583 69.0282,6.22936 138.24939,10.66928 135.69069,6.3078 -2.57751,-4.39355 -62.77342,-12.2887 -120.46458,-20.50505 -57.78804,-8.23015 -113.50185,-16.82284 -109.85482,-19.72265 3.73677,-2.97118 53.73736,1.46012 102.23143,5.18377 48.47409,3.72211 95.626,6.76826 92.02702,3.03682 -3.70759,-3.84405 -52.00574,-10.59411 -97.73577,-17.22373 -45.81268,-6.6416 -89.493,-13.20661 -85.79067,-14.88804 3.91419,-1.77764 46.21801,2.33486 87.16582,6.15324 40.93973,3.81764 80.80593,7.37812 78.71189,5.92554 -2.30113,-1.59626 -42.49472,-6.58423 -78.90243,-11.95438 -36.50744,-5.38486 -69.60621,-11.18406 -59.18214,-13.20974 10.9498,-2.12785 37.87907,-0.64396 61.97316,1.2507 24.14595,1.89873 45.62691,4.22451 45.62691,4.22451 z"
       style="fill:#ffc5c3;fill-opacity:0.696875;fill-rule:evenodd;stroke:#ff0000;stroke-width:1;stroke-linecap:butt;stroke-linejoin:miter;stroke-miterlimit:4;stroke-dasharray:none;stroke-dashoffset:0;stroke-opacity:1"
       inkscape:path-effect="#path-effect4149"
       inkscape:original-d="M 327.72723,286.12192 C 256.9156,215.84146 124.5091,227.72051 68.546952,310.49704 c -27.969675,40.5916 -27.657406,99.5082 6.141173,136.81313 50.834955,60.0891 135.102685,66.78169 198.358225,108.0085 37.05194,22.60317 80.13772,41.96956 103.05521,80.79628 27.46517,-41.63436 76.32803,-60.40476 116.90901,-86.34663 61.87762,-34.83593 140.7154,-44.47383 187.10726,-103.03671 36.90724,-43.43965 28.46852,-111.60687 -10.15408,-150.99593 -64.68294,-69.60502 -188.47887,-71.57947 -252.49318,0.20486 -21.54693,23.50792 -36.20125,53.33278 -41.36902,84.818 -5.30286,-35.66207 -22.23747,-69.67824 -48.37432,-94.63662 z" />
    <text
       xml:space="preserve"
       style="font-style:normal;font-variant:normal;font-weight:500;font-stretch:normal;font-size:30px;line-height:300%;font-family:'Baoli SC';-inkscape-font-specification:'Baoli SC, Medium';text-align:start;letter-spacing:0px;word-spacing:0px;writing-mode:lr-tb;text-anchor:start;fill:#000000;fill-opacity:1;stroke:none;stroke-width:1px;stroke-linecap:butt;stroke-linejoin:miter;stroke-opacity:1"
       x="145.99998"
       y="697.69556"
       id="text4155"
       sodipodi:linespacing="300%"><tspan
         sodipodi:role="line"
         id="tspan4157"
         x="145.99998"
         y="697.69556"
         style="font-style:normal;font-variant:normal;font-weight:500;font-stretch:normal;font-size:30px;line-height:300%;font-family:'Baoli SC';-inkscape-font-specification:'Baoli SC, Medium';text-align:start;writing-mode:lr-tb;text-anchor:start">A Loving Heart is the Truest Wisdom.</tspan></text>
  </g>
</svg>
